<svg xmlns="http://www.w3.org/2000/svg" viewBox="0 0 320 90" width="320" height="90">
  <defs>
    <radialGradient id="gO" cx="60%" cy="40%" r="60%">
      <stop offset="0%" stop-color="#1e4a8a"/>
      <stop offset="100%" stop-color="#0d2550"/>
    </radialGradient>
    <radialGradient id="gI" cx="40%" cy="60%" r="60%">
      <stop offset="0%" stop-color="#7aaad4"/>
      <stop offset="60%" stop-color="#4a80b8"/>
      <stop offset="100%" stop-color="#1e5a9a"/>
    </radialGradient>
    <clipPath id="cc">
      <circle cx="45" cy="45" r="42"/>
    </clipPath>
  </defs>

  <!-- Ícono -->
  <path d="M45 6 C67 6,84 23,84 45 C84 60,75 72,62 78 C53 83,42 84,33 81 C27 79,22 75,21 71 C20 66,21 60,25 56 C30 51,37 48,45 47 C53 45,60 43,65 39 C70 35,71 27,66 21 C61 15,54 11,45 6 Z" fill="url(#gO)" clip-path="url(#cc)"/>
  <path d="M45 84 C22 84,6 67,6 45 C6 30,15 18,28 12 C38 7,48 6,57 9 C63 11,68 15,69 20 C70 25,69 30,65 34 C60 38,53 40,45 42 C37 44,30 46,25 51 C20 56,19 63,24 69 C29 75,36 80,45 84 Z" fill="url(#gI)" clip-path="url(#cc)"/>
  <circle cx="45" cy="45" r="42" fill="none" stroke="#1a3a6b" stroke-width="1" opacity="0.25"/>

  <!-- Texto SAS -->
  <text x="98" y="52" font-family="'Segoe UI',Arial,sans-serif" font-size="38" font-weight="800" letter-spacing="6" fill="#1a3a6b">SAS</text>

  <!-- Texto Servicios Asociados -->
  <text x="99" y="68" font-family="'Segoe UI',Arial,sans-serif" font-size="11" font-weight="500" fill="#2a5a9a" letter-spacing="0.5">Servicios Asociados</text>

  <!-- Badge 30 Años -->
  <rect x="99" y="73" width="82" height="14" rx="2" fill="#1a3a6b"/>
  <text x="140" y="83.5" font-family="'Segoe UI',Arial,sans-serif" font-size="9.5" font-weight="700" fill="white" text-anchor="middle" letter-spacing="0.5">30 Años</text>
</svg>
